<svg width="18" height="18" viewBox="0 0 18 18" fill="none" xmlns="http://www.w3.org/2000/svg">
<circle cx="9" cy="9" r="7.5" stroke="#7178B6" stroke-width="3"/>
<path d="M6.81 12V11.02H8.74V7.48H7.06V6.5H9.79V11.02H11.56V12H6.81ZM9.16 5.55C8.92667 5.55 8.74 5.49 8.6 5.37C8.46 5.24333 8.39 5.07667 8.39 4.87C8.39 4.65667 8.46 4.49 8.6 4.37C8.74 4.24333 8.92667 4.18 9.16 4.18C9.39333 4.18 9.58 4.24333 9.72 4.37C9.86 4.49 9.93 4.65667 9.93 4.87C9.93 5.07667 9.86 5.24333 9.72 5.37C9.58 5.49 9.39333 5.55 9.16 5.55Z" fill="#7178B6"/>
</svg>
