<svg width="18" height="18" viewBox="0 0 18 18" fill="none" xmlns="http://www.w3.org/2000/svg">
<path d="M16.5 9.42173C16.5 13.1935 13.2276 16.4013 9 16.4013C4.77243 16.4013 1.5 13.1935 1.5 9.42173C1.5 5.64997 4.77243 2.4422 9 2.4422C13.2276 2.4422 16.5 5.64997 16.5 9.42173Z" stroke="#7178B6" stroke-width="3"/>
<path d="M6.81 12.8843V11.9043H8.74V8.36434H7.06V7.38434H9.79V11.9043H11.56V12.8843H6.81ZM9.16 6.43434C8.92667 6.43434 8.74 6.37434 8.6 6.25434C8.46 6.12767 8.39 5.961 8.39 5.75434C8.39 5.541 8.46 5.37434 8.6 5.25434C8.74 5.12767 8.92667 5.06434 9.16 5.06434C9.39333 5.06434 9.58 5.12767 9.72 5.25434C9.86 5.37434 9.93 5.541 9.93 5.75434C9.93 5.961 9.86 6.12767 9.72 6.25434C9.58 6.37434 9.39333 6.43434 9.16 6.43434Z" fill="#7178B6"/>
<rect width="2.92366" height="22.2747" rx="1.46183" transform="matrix(0.762815 -0.646616 0.690619 0.723219 0 1.8905)" fill="#DA1616"/>
</svg>
